<svg width="192" height="123" viewBox="0 0 192 123" fill="none" xmlns="http://www.w3.org/2000/svg">
<path d="M191.629 61.4102C191.621 72.6504 187.83 83.6721 180.671 93.2674C173.512 102.863 163.261 110.661 151.042 115.809C150.492 116.045 149.938 116.271 149.38 116.488L149.265 116.535L148.867 116.691C148.538 116.823 148.215 116.946 147.881 117.068C145.792 117.851 143.65 118.554 141.454 119.177C140.208 119.532 138.949 119.861 137.676 120.163L136.153 120.507C119.209 124.197 101.22 122.917 85.3098 116.889C84.658 116.639 84.0062 116.384 83.3659 116.12L82.2122 115.648C70.7932 110.755 61.1068 103.541 54.0851 94.6993C53.3467 93.7779 52.643 92.8344 51.9738 91.869C51.3777 91.0293 50.8009 90.1787 50.2433 89.317C44.8238 80.683 42.0055 71.1151 42.0232 61.4102C42.0232 60.2655 42.0616 59.127 42.1386 57.9949C43.22 42.0905 51.8464 27.1586 66.1829 16.3749C80.5194 5.59124 99.4349 -0.193285 118.906 0.251609C138.378 0.696502 156.869 7.33571 170.446 18.7572C184.024 30.1786 191.618 45.4812 191.611 61.4102H191.629Z" fill="url(#paint0_linear_1_184)"/>
<path d="M102.136 59.2354C102.136 59.2354 85.4079 52.7493 83.9542 43.8244C82.5006 34.8995 83.5216 26.3708 91.8571 23.9839C91.8571 23.9839 97.1294 10.238 115.819 15.7619C134.509 21.2857 131.561 37.8713 141.777 39.8572C151.993 41.8431 171.07 33.4796 174.71 43.6828C178.35 53.8861 166.38 53.2634 158.425 61.9242C150.471 70.5849 162.757 75.1323 160.508 81.0948C158.258 87.0573 149.761 91.1565 149.761 91.1565L102.136 59.2354Z" fill="url(#paint1_linear_1_184)"/>
<path d="M79.2299 78.8116L83.9542 89.3168H84.4676L91.857 61.9241C87.1903 65.2686 79.2299 78.8116 79.2299 78.8116Z" fill="url(#paint2_linear_1_184)"/>
<path d="M70.9348 93.3028L67.9409 94.534C64.226 96.3548 58.6768 95.8359 58.6768 95.8359C61.6764 98.5955 78.5665 101.718 83.3139 101.638L84.1907 91.8641H73.669L70.9348 93.3028Z" fill="url(#paint3_linear_1_184)"/>
<path d="M149.38 116.474L149.265 116.521L148.867 116.676C148.538 116.809 148.215 116.931 147.88 117.054C145.792 117.837 143.65 118.54 141.454 119.162C140.208 119.518 138.949 119.846 137.676 120.148L136.153 120.493C119.209 124.183 101.22 122.903 85.3098 116.875C84.658 116.625 84.0062 116.37 83.3659 116.106L82.2122 115.634C82.3737 111.587 82.6217 106.742 82.9851 101.633C83.2159 98.4399 83.4985 95.1426 83.8331 91.8688C83.9196 91.015 84.0119 90.1659 84.1042 89.3168C85.4656 77.2503 87.6461 66.0611 91.1418 62.5044L91.1937 62.4572C91.6375 61.9577 92.2636 61.5861 92.9819 61.3959C98.0293 60.4147 101.588 60.0845 102.148 59.2354C102.708 58.3863 102.148 56.7164 102.148 56.7164L103.152 56.6032C104.611 56.4239 107.443 56.0466 110.126 55.4805C110.143 55.4849 110.161 55.4849 110.178 55.4805C112.549 54.9758 114.793 54.3248 115.889 53.5417L118.138 58.4335C118.138 58.4335 135.057 56.6834 141.662 61.943C141.703 61.9676 141.74 61.9961 141.772 62.028C141.841 62.0794 141.907 62.1346 141.968 62.1931C142.361 62.5329 142.71 62.9043 143.012 63.3016C145.164 66.1319 146.686 77.4909 147.742 89.8122C147.984 92.6425 148.204 95.5671 148.394 98.4304C148.832 105.044 149.161 111.45 149.38 116.474Z" fill="url(#paint4_linear_1_184)"/>
<path opacity="0.15" d="M149.265 116.535L148.867 116.691C148.538 116.823 148.215 116.945 147.88 117.068C145.792 117.851 143.65 118.554 141.454 119.177C140.208 119.532 138.949 119.861 137.676 120.162C129.883 113.374 126.791 104.563 126.791 104.563L148.382 98.4304L149.265 116.535Z" fill="black"/>
<path d="M141.656 61.9241C149.473 68.198 151.174 81.3683 149.732 91.1707C148.29 100.973 145.613 110.153 140.053 109.87C134.492 109.587 115.248 98.671 107.813 92.7179L112.156 85.9016L127.87 91.2556V76.9861L141.656 61.9241Z" fill="url(#paint5_linear_1_184)"/>
<path d="M141.656 61.9241C149.473 68.198 151.174 81.3683 149.732 91.1707C148.29 100.973 145.613 110.153 140.053 109.87C134.492 109.587 115.248 98.671 107.813 92.7179L112.156 85.9016L127.87 91.2556V76.9861L141.656 61.9241Z" fill="url(#paint6_linear_1_184)"/>
<g filter="url(#filter0_d_1_184)">
<path d="M101.231 89.3168H29.1306V91.8688H101.231V89.3168Z" fill="url(#paint7_linear_1_184)"/>
<path d="M69.8619 57.9948H15.0325L29.1306 89.3168H83.9542L69.8619 57.9948Z" fill="url(#paint8_linear_1_184)"/>
</g>
<path d="M45.5939 91.8688C45.5939 91.8688 55.0542 95.7416 61.0649 95.836C67.0757 95.9303 73.6748 91.8688 73.6748 91.8688H45.5939Z" fill="url(#paint9_linear_1_184)"/>
<path d="M112.156 85.9016C112.156 85.9016 103.838 82.4675 100.256 82.0901C96.6738 81.7128 85.5522 89.3168 85.5522 89.3168H101.242L107.83 92.7179L112.156 85.9016Z" fill="url(#paint10_linear_1_184)"/>
<path d="M115.185 45.8056C115.226 48.3886 115.457 50.9673 115.877 53.5276C112.156 55.2399 107.801 56.1598 103.14 56.6079L102.869 53.5276L102.708 51.6407V51.5794C101.809 51.5629 100.923 51.4026 100.1 51.1077C94.4702 49.1217 93.2588 39.4138 93.2588 39.4138C95.5143 39.3383 98.4504 36.0127 98.4504 36.0127C100.094 38.0694 107.72 42.0413 112.145 40.9752C116.569 39.9091 116.223 37.3571 116.223 37.3571C117.023 37.633 117.715 38.0834 118.224 38.659C118.733 39.2347 119.038 39.9135 119.107 40.6214C119.344 43.1121 115.185 45.8056 115.185 45.8056Z" fill="url(#paint11_linear_1_184)"/>
<path opacity="0.15" d="M111.406 48.5462C110.362 49.9897 105.638 52.2869 102.875 53.537L102.713 51.6501C102.886 51.6501 103.054 51.6029 103.215 51.5746C105.471 51.2481 107.636 50.5914 109.607 49.6359C109.63 49.6283 109.652 49.6171 109.67 49.6029C110.262 49.3166 110.817 48.9815 111.326 48.6028L111.406 48.5462Z" fill="black"/>
<path opacity="0.15" d="M121.386 89.0527L133.627 93.1472L127.858 89.7461V77.0097C127.858 77.0097 126.053 88.0762 121.386 89.0527Z" fill="black"/>
<defs>
<filter id="filter0_d_1_184" x="0.0324707" y="42.9948" width="126.198" height="73.8741" filterUnits="userSpaceOnUse" color-interpolation-filters="sRGB">
<feFlood flood-opacity="0" result="BackgroundImageFix"/>
<feColorMatrix in="SourceAlpha" type="matrix" values="0 0 0 0 0 0 0 0 0 0 0 0 0 0 0 0 0 0 127 0" result="hardAlpha"/>
<feOffset dx="5" dy="5"/>
<feGaussianBlur stdDeviation="10"/>
<feColorMatrix type="matrix" values="0 0 0 0 0 0 0 0 0 0 0 0 0 0 0 0 0 0 0.2 0"/>
<feBlend mode="normal" in2="BackgroundImageFix" result="effect1_dropShadow_1_184"/>
<feBlend mode="normal" in="SourceGraphic" in2="effect1_dropShadow_1_184" result="shape"/>
</filter>
<linearGradient id="paint0_linear_1_184" x1="117.133" y1="6.87112" x2="115.421" y2="127.463" gradientUnits="userSpaceOnUse">
<stop stop-color="white" stop-opacity="0"/>
<stop offset="1" stop-color="#64B5F6" stop-opacity="0.6"/>
</linearGradient>
<linearGradient id="paint1_linear_1_184" x1="83.4062" y1="52.8012" x2="175.39" y2="52.8012" gradientUnits="userSpaceOnUse">
<stop stop-color="#EF9A9A"/>
<stop offset="1" stop-color="#D81B60"/>
</linearGradient>
<linearGradient id="paint2_linear_1_184" x1="84.8599" y1="76.7078" x2="82.9997" y2="102.572" gradientUnits="userSpaceOnUse">
<stop stop-color="#7E57C2"/>
<stop offset="1" stop-color="#4527A0"/>
</linearGradient>
<linearGradient id="paint3_linear_1_184" x1="7710.57" y1="2359.39" x2="7692.44" y2="2897.54" gradientUnits="userSpaceOnUse">
<stop stop-color="#7E57C2"/>
<stop offset="1" stop-color="#4527A0"/>
</linearGradient>
<linearGradient id="paint4_linear_1_184" x1="23024.8" y1="13873.5" x2="26451.7" y2="21558.3" gradientUnits="userSpaceOnUse">
<stop stop-color="#7E57C2"/>
<stop offset="1" stop-color="#4527A0"/>
</linearGradient>
<linearGradient id="paint5_linear_1_184" x1="15801.6" y1="9122.9" x2="18881.4" y2="15395.3" gradientUnits="userSpaceOnUse">
<stop stop-color="#7E57C2"/>
<stop offset="1" stop-color="#4527A0"/>
</linearGradient>
<linearGradient id="paint6_linear_1_184" x1="132.49" y1="67.2451" x2="128.063" y2="111.398" gradientUnits="userSpaceOnUse">
<stop offset="0.14" stop-color="#7E57C2" stop-opacity="0"/>
<stop offset="0.26" stop-color="#724DBB" stop-opacity="0.21"/>
<stop offset="0.48" stop-color="#5F3DAF" stop-opacity="0.55"/>
<stop offset="0.66" stop-color="#5131A7" stop-opacity="0.79"/>
<stop offset="0.81" stop-color="#482AA2" stop-opacity="0.94"/>
<stop offset="0.91" stop-color="#4527A0"/>
</linearGradient>
<linearGradient id="paint7_linear_1_184" x1="29.1306" y1="90.5905" x2="101.231" y2="90.5905" gradientUnits="userSpaceOnUse">
<stop stop-color="#D2D4D5"/>
<stop offset="1" stop-color="#AAACAE"/>
</linearGradient>
<linearGradient id="paint8_linear_1_184" x1="607.071" y1="3920.01" x2="3827.64" y2="8397.7" gradientUnits="userSpaceOnUse">
<stop stop-color="#D2D4D5"/>
<stop offset="1" stop-color="#AAACAE"/>
</linearGradient>
<linearGradient id="paint9_linear_1_184" x1="47.3821" y1="87.6092" x2="68.7868" y2="98.83" gradientUnits="userSpaceOnUse">
<stop stop-color="#FFF8E1"/>
<stop offset="1" stop-color="#FFCC80"/>
</linearGradient>
<linearGradient id="paint10_linear_1_184" x1="8912.83" y1="2746.26" x2="9379.76" y2="3366.94" gradientUnits="userSpaceOnUse">
<stop stop-color="#FFF8E1"/>
<stop offset="1" stop-color="#FFCC80"/>
</linearGradient>
<linearGradient id="paint11_linear_1_184" x1="9104.6" y1="3012.85" x2="9481.28" y2="3877.53" gradientUnits="userSpaceOnUse">
<stop stop-color="#FFF8E1"/>
<stop offset="1" stop-color="#FFCC80"/>
</linearGradient>
</defs>
</svg>
