<svg width="350" height="35" viewBox="0 0 350 35" fill="none" xmlns="http://www.w3.org/2000/svg">
<path d="M20.607 12.832V15.5742C20.607 17.3672 20.3727 18.9902 19.9039 20.4434C19.4469 21.8848 18.7789 23.1211 17.9 24.1523C17.0328 25.1836 15.9898 25.9746 14.7711 26.5254C13.5523 27.0762 12.1812 27.3516 10.6578 27.3516C9.16953 27.3516 7.81015 27.0762 6.57968 26.5254C5.36093 25.9746 4.3121 25.1836 3.4332 24.1523C2.55429 23.1211 1.8746 21.8848 1.39413 20.4434C0.913666 18.9902 0.673431 17.3672 0.673431 15.5742V12.832C0.673431 11.0391 0.907806 9.42188 1.37656 7.98047C1.85703 6.52734 2.53671 5.28516 3.41562 4.25391C4.29453 3.22266 5.34335 2.43164 6.5621 1.88086C7.78085 1.33008 9.13437 1.05469 10.6227 1.05469C12.1461 1.05469 13.5172 1.33008 14.7359 1.88086C15.9547 2.43164 17.0035 3.22266 17.8824 4.25391C18.7613 5.28516 19.4352 6.52734 19.9039 7.98047C20.3727 9.42188 20.607 11.0391 20.607 12.832ZM18.4625 15.5742V12.7969C18.4625 11.2852 18.2867 9.92578 17.9352 8.71875C17.5953 7.51172 17.0855 6.48047 16.4059 5.625C15.7379 4.76953 14.9176 4.11328 13.9449 3.65625C12.9723 3.19922 11.8648 2.9707 10.6227 2.9707C9.41562 2.9707 8.33163 3.19922 7.3707 3.65625C6.40976 4.11328 5.58945 4.76953 4.90976 5.625C4.24179 6.48047 3.72617 7.51172 3.36288 8.71875C3.01132 9.92578 2.83554 11.2852 2.83554 12.7969V15.5742C2.83554 17.0977 3.01132 18.4688 3.36288 19.6875C3.72617 20.8945 4.24765 21.9316 4.92734 22.7988C5.60703 23.6543 6.42734 24.3105 7.38828 24.7676C8.36093 25.2246 9.45078 25.4531 10.6578 25.4531C11.9117 25.4531 13.0191 25.2246 13.9801 24.7676C14.941 24.3105 15.7555 23.6543 16.4234 22.7988C17.0914 21.9316 17.5953 20.8945 17.9352 19.6875C18.2867 18.4688 18.4625 17.0977 18.4625 15.5742ZM39.5633 22.6055V7.98047H41.6727V27H39.6512L39.5633 22.6055ZM39.95 19.0898L41.0399 19.0547C41.0399 20.25 40.8992 21.3516 40.618 22.3594C40.3367 23.3672 39.8973 24.2461 39.2996 24.9961C38.702 25.7461 37.9285 26.3262 36.9793 26.7363C36.0301 27.1465 34.8875 27.3516 33.5516 27.3516C32.6258 27.3516 31.7762 27.2227 31.0027 26.9648C30.241 26.6953 29.5848 26.2734 29.034 25.6992C28.4832 25.125 28.0555 24.3809 27.7508 23.4668C27.4578 22.5527 27.3113 21.4453 27.3113 20.1445V7.98047H29.4031V20.1797C29.4031 21.1992 29.5145 22.0488 29.7371 22.7285C29.9715 23.4082 30.2879 23.9531 30.6863 24.3633C31.0965 24.7734 31.5652 25.0664 32.0926 25.2422C32.6199 25.418 33.1883 25.5059 33.7977 25.5059C35.3445 25.5059 36.5633 25.207 37.4539 24.6094C38.3563 24.0117 38.9949 23.2266 39.3699 22.2539C39.7567 21.2695 39.95 20.2148 39.95 19.0898ZM51.0664 11.127V27H48.9746V7.98047H51.0137L51.0664 11.127ZM57.7988 7.83984L57.7461 9.77344C57.5117 9.73828 57.2832 9.70898 57.0605 9.68555C56.8379 9.66211 56.5977 9.65039 56.3398 9.65039C55.4258 9.65039 54.623 9.82031 53.9316 10.1602C53.252 10.4883 52.6777 10.9512 52.209 11.5488C51.7402 12.1348 51.3828 12.8262 51.1367 13.623C50.8906 14.4082 50.75 15.252 50.7148 16.1543L49.9414 16.4531C49.9414 15.2109 50.0703 14.0566 50.3281 12.9902C50.5859 11.9238 50.9785 10.9922 51.5059 10.1953C52.0449 9.38672 52.7188 8.75977 53.5273 8.31445C54.3477 7.85742 55.3086 7.62891 56.4102 7.62891C56.6797 7.62891 56.9434 7.65234 57.2012 7.69922C57.4707 7.73438 57.6699 7.78125 57.7988 7.83984ZM76.1469 1.40625V27H73.9847V1.40625H76.1469ZM88.0648 13.1836V15.0469H75.4261V13.1836H88.0648ZM89.8402 1.40625V3.26953H75.4261V1.40625H89.8402ZM97.8805 7.98047V27H95.7887V7.98047H97.8805ZM95.4196 2.47852C95.4196 2.08008 95.5426 1.74609 95.7887 1.47656C96.0465 1.19531 96.3981 1.05469 96.8434 1.05469C97.2887 1.05469 97.6403 1.19531 97.8981 1.47656C98.1676 1.74609 98.3024 2.08008 98.3024 2.47852C98.3024 2.86523 98.1676 3.19922 97.8981 3.48047C97.6403 3.75 97.2887 3.88477 96.8434 3.88477C96.3981 3.88477 96.0465 3.75 95.7887 3.48047C95.5426 3.19922 95.4196 2.86523 95.4196 2.47852ZM107.52 12.041V27H105.429V7.98047H107.432L107.52 12.041ZM107.046 16.3125L106.114 15.7852C106.184 14.6602 106.413 13.6055 106.8 12.6211C107.186 11.6367 107.708 10.7695 108.364 10.0195C109.032 9.26953 109.811 8.68359 110.702 8.26172C111.604 7.83984 112.6 7.62891 113.69 7.62891C114.639 7.62891 115.489 7.75781 116.239 8.01562C116.989 8.27344 117.628 8.68359 118.155 9.24609C118.682 9.80859 119.081 10.5293 119.35 11.4082C119.632 12.2871 119.772 13.3594 119.772 14.625V27H117.663V14.6074C117.663 13.2949 117.481 12.2695 117.118 11.5312C116.755 10.7812 116.239 10.248 115.571 9.93164C114.903 9.61523 114.112 9.45703 113.198 9.45703C112.19 9.45703 111.305 9.67969 110.544 10.125C109.794 10.5586 109.161 11.127 108.645 11.8301C108.141 12.5215 107.755 13.2656 107.485 14.0625C107.216 14.8477 107.069 15.5977 107.046 16.3125ZM129.359 7.98047V27H127.268V7.98047H129.359ZM126.898 2.47852C126.898 2.08008 127.021 1.74609 127.268 1.47656C127.525 1.19531 127.877 1.05469 128.322 1.05469C128.768 1.05469 129.119 1.19531 129.377 1.47656C129.646 1.74609 129.781 2.08008 129.781 2.47852C129.781 2.86523 129.646 3.19922 129.377 3.48047C129.119 3.75 128.768 3.88477 128.322 3.88477C127.877 3.88477 127.525 3.75 127.268 3.48047C127.021 3.19922 126.898 2.86523 126.898 2.47852ZM148.298 22.1484C148.298 21.6328 148.169 21.123 147.911 20.6191C147.654 20.1152 147.155 19.6523 146.417 19.2305C145.691 18.8086 144.618 18.4512 143.2 18.1582C142.146 17.9238 141.202 17.6602 140.37 17.3672C139.55 17.0742 138.859 16.7227 138.296 16.3125C137.734 15.9023 137.306 15.4102 137.013 14.8359C136.72 14.2617 136.573 13.582 136.573 12.7969C136.573 12.0938 136.726 11.4316 137.03 10.8105C137.347 10.1777 137.792 9.62695 138.366 9.1582C138.952 8.67773 139.655 8.30273 140.476 8.0332C141.308 7.76367 142.239 7.62891 143.271 7.62891C144.736 7.62891 145.989 7.88086 147.032 8.38477C148.087 8.87695 148.89 9.55078 149.441 10.4062C150.003 11.2617 150.284 12.2285 150.284 13.3066H148.193C148.193 12.6504 147.999 12.0293 147.612 11.4434C147.237 10.8574 146.681 10.377 145.943 10.002C145.216 9.62695 144.325 9.43945 143.271 9.43945C142.181 9.43945 141.296 9.60352 140.616 9.93164C139.937 10.2598 139.439 10.6758 139.122 11.1797C138.818 11.6836 138.665 12.2051 138.665 12.7441C138.665 13.166 138.73 13.5527 138.859 13.9043C138.999 14.2441 139.245 14.5605 139.597 14.8535C139.96 15.1465 140.476 15.4219 141.144 15.6797C141.812 15.9375 142.679 16.1895 143.745 16.4355C145.28 16.7754 146.534 17.1914 147.507 17.6836C148.491 18.1641 149.218 18.7617 149.687 19.4766C150.155 20.1797 150.39 21.0352 150.39 22.043C150.39 22.8281 150.226 23.5488 149.898 24.2051C149.57 24.8496 149.095 25.4062 148.474 25.875C147.864 26.3438 147.126 26.707 146.259 26.9648C145.404 27.2227 144.443 27.3516 143.376 27.3516C141.771 27.3516 140.411 27.0879 139.298 26.5605C138.196 26.0215 137.359 25.3184 136.784 24.4512C136.222 23.5723 135.941 22.6406 135.941 21.6562H138.032C138.103 22.6406 138.413 23.4199 138.964 23.9941C139.515 24.5566 140.189 24.9551 140.986 25.1895C141.794 25.4238 142.591 25.541 143.376 25.541C144.454 25.541 145.357 25.3828 146.083 25.0664C146.81 24.75 147.361 24.334 147.736 23.8184C148.111 23.3027 148.298 22.7461 148.298 22.1484ZM159.045 0V27H156.953V0H159.045ZM158.571 16.3125L157.639 15.7852C157.709 14.6602 157.938 13.6055 158.325 12.6211C158.711 11.6367 159.233 10.7695 159.889 10.0195C160.557 9.26953 161.336 8.68359 162.227 8.26172C163.129 7.83984 164.125 7.62891 165.215 7.62891C166.164 7.62891 167.014 7.75781 167.764 8.01562C168.514 8.27344 169.153 8.68359 169.68 9.24609C170.207 9.80859 170.606 10.5293 170.875 11.4082C171.157 12.2871 171.297 13.3594 171.297 14.625V27H169.188V14.6074C169.188 13.2949 169.006 12.2695 168.643 11.5312C168.28 10.7812 167.764 10.248 167.096 9.93164C166.428 9.61523 165.637 9.45703 164.723 9.45703C163.715 9.45703 162.83 9.67969 162.069 10.125C161.319 10.5586 160.686 11.127 160.17 11.8301C159.666 12.5215 159.28 13.2656 159.01 14.0625C158.741 14.8477 158.594 15.5977 158.571 16.3125ZM185.859 27.3516C184.617 27.3516 183.474 27.123 182.431 26.666C181.4 26.209 180.498 25.5645 179.724 24.7324C178.963 23.9004 178.371 22.916 177.949 21.7793C177.539 20.6309 177.334 19.377 177.334 18.0176V17.2617C177.334 15.7969 177.55 14.4727 177.984 13.2891C178.418 12.1055 179.015 11.0918 179.777 10.248C180.539 9.4043 181.406 8.75977 182.379 8.31445C183.363 7.85742 184.394 7.62891 185.472 7.62891C186.679 7.62891 187.752 7.8457 188.689 8.2793C189.627 8.70117 190.412 9.30469 191.045 10.0898C191.689 10.8633 192.175 11.7832 192.504 12.8496C192.832 13.9043 192.996 15.0703 192.996 16.3477V17.6309H178.599V15.8379H190.904V15.5918C190.88 14.5254 190.664 13.5293 190.254 12.6035C189.855 11.666 189.257 10.9043 188.461 10.3184C187.664 9.73242 186.668 9.43945 185.472 9.43945C184.582 9.43945 183.761 9.62695 183.011 10.002C182.273 10.377 181.634 10.916 181.095 11.6191C180.568 12.3105 180.158 13.1367 179.865 14.0977C179.584 15.0469 179.443 16.1016 179.443 17.2617V18.0176C179.443 19.0723 179.595 20.0566 179.9 20.9707C180.216 21.873 180.662 22.6699 181.236 23.3613C181.822 24.0527 182.513 24.5918 183.31 24.9785C184.107 25.3652 184.986 25.5586 185.947 25.5586C187.072 25.5586 188.068 25.3535 188.935 24.9434C189.802 24.5215 190.582 23.8594 191.273 22.957L192.591 23.9766C192.181 24.5859 191.666 25.1484 191.045 25.6641C190.435 26.1797 189.703 26.5898 188.847 26.8945C187.992 27.1992 186.996 27.3516 185.859 27.3516ZM211.302 23.3086V0H213.411V27H211.442L211.302 23.3086ZM198.1 17.6836V17.3145C198.1 15.8379 198.27 14.5078 198.61 13.3242C198.95 12.1289 199.436 11.1094 200.069 10.2656C200.714 9.41016 201.487 8.75977 202.389 8.31445C203.292 7.85742 204.311 7.62891 205.448 7.62891C206.561 7.62891 207.546 7.81055 208.401 8.17383C209.257 8.53711 209.989 9.05859 210.598 9.73828C211.22 10.418 211.718 11.2266 212.093 12.1641C212.479 13.1016 212.761 14.1445 212.936 15.293V19.9863C212.796 21.0645 212.538 22.0547 212.163 22.957C211.788 23.8477 211.29 24.627 210.669 25.2949C210.048 25.9512 209.298 26.4609 208.419 26.8242C207.552 27.1758 206.55 27.3516 205.413 27.3516C204.288 27.3516 203.274 27.1172 202.372 26.6484C201.47 26.1797 200.702 25.5176 200.069 24.6621C199.436 23.7949 198.95 22.7695 198.61 21.5859C198.27 20.4023 198.1 19.1016 198.1 17.6836ZM200.21 17.3145V17.6836C200.21 18.7969 200.321 19.8281 200.544 20.7773C200.766 21.7266 201.106 22.5527 201.563 23.2559C202.02 23.959 202.6 24.5098 203.304 24.9082C204.007 25.3066 204.839 25.5059 205.8 25.5059C207.007 25.5059 208.02 25.2773 208.841 24.8203C209.661 24.3516 210.317 23.7363 210.809 22.9746C211.302 22.2012 211.659 21.3574 211.882 20.4434V14.9766C211.741 14.3555 211.536 13.7227 211.266 13.0781C210.997 12.4336 210.628 11.8418 210.159 11.3027C209.702 10.752 209.116 10.3125 208.401 9.98438C207.698 9.64453 206.843 9.47461 205.835 9.47461C204.862 9.47461 204.024 9.67383 203.321 10.0723C202.618 10.4707 202.032 11.0273 201.563 11.7422C201.106 12.4453 200.766 13.2715 200.544 14.2207C200.321 15.1699 200.21 16.2012 200.21 17.3145ZM240.53 16.5762H233.236V14.7305H240.53C242.054 14.7305 243.29 14.4844 244.239 13.9922C245.2 13.4883 245.898 12.8086 246.331 11.9531C246.777 11.0977 246.999 10.1367 246.999 9.07031C246.999 8.02734 246.777 7.06641 246.331 6.1875C245.898 5.30859 245.2 4.60547 244.239 4.07812C243.29 3.53906 242.054 3.26953 240.53 3.26953H233.991V27H231.829V1.40625H240.53C242.405 1.40625 243.982 1.72852 245.259 2.37305C246.548 3.01758 247.521 3.91406 248.177 5.0625C248.833 6.21094 249.161 7.53516 249.161 9.03516C249.161 10.6055 248.833 11.959 248.177 13.0957C247.521 14.2207 246.554 15.082 245.277 15.6797C243.999 16.2773 242.417 16.5762 240.53 16.5762ZM257.412 11.127V27H255.321V7.98047H257.36L257.412 11.127ZM264.145 7.83984L264.092 9.77344C263.858 9.73828 263.629 9.70898 263.407 9.68555C263.184 9.66211 262.944 9.65039 262.686 9.65039C261.772 9.65039 260.969 9.82031 260.278 10.1602C259.598 10.4883 259.024 10.9512 258.555 11.5488C258.086 12.1348 257.729 12.8262 257.483 13.623C257.237 14.4082 257.096 15.252 257.061 16.1543L256.287 16.4531C256.287 15.2109 256.416 14.0566 256.674 12.9902C256.932 11.9238 257.325 10.9922 257.852 10.1953C258.391 9.38672 259.065 8.75977 259.873 8.31445C260.694 7.85742 261.655 7.62891 262.756 7.62891C263.026 7.62891 263.289 7.65234 263.547 7.69922C263.817 7.73438 264.016 7.78125 264.145 7.83984ZM267.738 17.7891V17.209C267.738 15.8262 267.937 14.5488 268.336 13.377C268.734 12.2051 269.302 11.1914 270.041 10.3359C270.791 9.48047 271.687 8.81836 272.73 8.34961C273.773 7.86914 274.933 7.62891 276.211 7.62891C277.5 7.62891 278.666 7.86914 279.709 8.34961C280.752 8.81836 281.648 9.48047 282.398 10.3359C283.148 11.1914 283.722 12.2051 284.121 13.377C284.519 14.5488 284.718 15.8262 284.718 17.209V17.7891C284.718 19.1719 284.519 20.4492 284.121 21.6211C283.722 22.7812 283.148 23.7891 282.398 24.6445C281.66 25.5 280.769 26.168 279.726 26.6484C278.683 27.1172 277.523 27.3516 276.246 27.3516C274.957 27.3516 273.791 27.1172 272.748 26.6484C271.705 26.168 270.808 25.5 270.058 24.6445C269.308 23.7891 268.734 22.7812 268.336 21.6211C267.937 20.4492 267.738 19.1719 267.738 17.7891ZM269.83 17.209V17.7891C269.83 18.832 269.97 19.8223 270.252 20.7598C270.533 21.6855 270.943 22.5117 271.482 23.2383C272.021 23.9531 272.689 24.5156 273.486 24.9258C274.283 25.3359 275.203 25.541 276.246 25.541C277.277 25.541 278.185 25.3359 278.97 24.9258C279.767 24.5156 280.435 23.9531 280.974 23.2383C281.513 22.5117 281.918 21.6855 282.187 20.7598C282.468 19.8223 282.609 18.832 282.609 17.7891V17.209C282.609 16.1777 282.468 15.1992 282.187 14.2734C281.918 13.3477 281.507 12.5215 280.957 11.7949C280.418 11.0684 279.75 10.4941 278.953 10.0723C278.156 9.65039 277.242 9.43945 276.211 9.43945C275.179 9.43945 274.265 9.65039 273.468 10.0723C272.683 10.4941 272.015 11.0684 271.464 11.7949C270.925 12.5215 270.515 13.3477 270.234 14.2734C269.964 15.1992 269.83 16.1777 269.83 17.209ZM291.036 7.98047H293.145V29.2676C293.145 30.4277 292.952 31.4121 292.565 32.2207C292.178 33.0293 291.616 33.6387 290.878 34.0488C290.139 34.4707 289.231 34.6816 288.153 34.6816C287.86 34.6816 287.544 34.6523 287.204 34.5938C286.864 34.5352 286.553 34.4531 286.272 34.3477L286.307 32.5898C286.518 32.6484 286.77 32.7012 287.063 32.748C287.344 32.8066 287.62 32.8359 287.889 32.8359C288.569 32.8359 289.143 32.7012 289.612 32.4316C290.081 32.1738 290.432 31.7812 290.667 31.2539C290.913 30.7266 291.036 30.0645 291.036 29.2676V7.98047ZM290.667 2.47852C290.667 2.08008 290.796 1.74609 291.053 1.47656C291.311 1.19531 291.663 1.05469 292.108 1.05469C292.553 1.05469 292.905 1.19531 293.163 1.47656C293.432 1.74609 293.567 2.08008 293.567 2.47852C293.567 2.86523 293.432 3.19922 293.163 3.48047C292.905 3.75 292.553 3.88477 292.108 3.88477C291.663 3.88477 291.311 3.75 291.053 3.48047C290.796 3.19922 290.667 2.86523 290.667 2.47852ZM308.252 27.3516C307.01 27.3516 305.867 27.123 304.824 26.666C303.793 26.209 302.891 25.5645 302.117 24.7324C301.355 23.9004 300.764 22.916 300.342 21.7793C299.932 20.6309 299.727 19.377 299.727 18.0176V17.2617C299.727 15.7969 299.943 14.4727 300.377 13.2891C300.811 12.1055 301.408 11.0918 302.17 10.248C302.932 9.4043 303.799 8.75977 304.771 8.31445C305.756 7.85742 306.787 7.62891 307.865 7.62891C309.072 7.62891 310.145 7.8457 311.082 8.2793C312.02 8.70117 312.805 9.30469 313.438 10.0898C314.082 10.8633 314.568 11.7832 314.896 12.8496C315.225 13.9043 315.389 15.0703 315.389 16.3477V17.6309H300.992V15.8379H313.297V15.5918C313.273 14.5254 313.057 13.5293 312.646 12.6035C312.248 11.666 311.65 10.9043 310.854 10.3184C310.057 9.73242 309.061 9.43945 307.865 9.43945C306.975 9.43945 306.154 9.62695 305.404 10.002C304.666 10.377 304.027 10.916 303.488 11.6191C302.961 12.3105 302.551 13.1367 302.258 14.0977C301.977 15.0469 301.836 16.1016 301.836 17.2617V18.0176C301.836 19.0723 301.988 20.0566 302.293 20.9707C302.609 21.873 303.055 22.6699 303.629 23.3613C304.215 24.0527 304.906 24.5918 305.703 24.9785C306.5 25.3652 307.379 25.5586 308.34 25.5586C309.465 25.5586 310.461 25.3535 311.328 24.9434C312.195 24.5215 312.975 23.8594 313.666 22.957L314.984 23.9766C314.574 24.5859 314.059 25.1484 313.438 25.6641C312.828 26.1797 312.096 26.5898 311.24 26.8945C310.385 27.1992 309.389 27.3516 308.252 27.3516ZM328.351 25.541C329.241 25.541 330.073 25.377 330.847 25.0488C331.632 24.709 332.277 24.2109 332.78 23.5547C333.296 22.8867 333.589 22.0723 333.659 21.1113H335.663C335.605 22.3184 335.236 23.3965 334.556 24.3457C333.888 25.2832 333.009 26.0215 331.919 26.5605C330.841 27.0879 329.652 27.3516 328.351 27.3516C327.027 27.3516 325.855 27.1113 324.835 26.6309C323.827 26.1504 322.984 25.4824 322.304 24.627C321.624 23.7598 321.109 22.752 320.757 21.6035C320.417 20.4434 320.247 19.1953 320.247 17.8594V17.1211C320.247 15.7852 320.417 14.543 320.757 13.3945C321.109 12.2344 321.624 11.2266 322.304 10.3711C322.984 9.50391 323.827 8.83008 324.835 8.34961C325.843 7.86914 327.009 7.62891 328.333 7.62891C329.693 7.62891 330.911 7.9043 331.989 8.45508C333.079 9.00586 333.946 9.78516 334.591 10.793C335.247 11.8008 335.605 12.9961 335.663 14.3789H333.659C333.601 13.3594 333.331 12.4805 332.851 11.7422C332.37 11.0039 331.737 10.4355 330.952 10.0371C330.167 9.63867 329.294 9.43945 328.333 9.43945C327.255 9.43945 326.335 9.65039 325.573 10.0723C324.812 10.4824 324.191 11.0508 323.71 11.7773C323.241 12.4922 322.896 13.3125 322.673 14.2383C322.45 15.1523 322.339 16.1133 322.339 17.1211V17.8594C322.339 18.8789 322.445 19.8516 322.655 20.7773C322.878 21.6914 323.224 22.5059 323.693 23.2207C324.173 23.9355 324.794 24.5039 325.556 24.9258C326.329 25.3359 327.261 25.541 328.351 25.541ZM348.889 7.98047V9.70312H339.362V7.98047H348.889ZM342.86 3.09375H344.952V22.377C344.952 23.2559 345.069 23.918 345.303 24.3633C345.537 24.8086 345.842 25.1074 346.217 25.2598C346.592 25.4121 346.996 25.4883 347.43 25.4883C347.746 25.4883 348.051 25.4707 348.344 25.4355C348.637 25.3887 348.901 25.3418 349.135 25.2949L349.223 27.0703C348.965 27.1523 348.631 27.2168 348.221 27.2637C347.811 27.3223 347.401 27.3516 346.991 27.3516C346.182 27.3516 345.467 27.2051 344.846 26.9121C344.225 26.6074 343.739 26.0918 343.387 25.3652C343.036 24.627 342.86 23.625 342.86 22.3594V3.09375Z" fill="black"/>
</svg>
